<svg width="48" height="48" viewBox="0 0 48 48" fill="none" xmlns="http://www.w3.org/2000/svg">
<g clip-path="url(#clip0_296_56)">
<path d="M24 4.05762C29.434 4.05762 30.112 4.07762 32.244 4.17762C34.374 4.27762 35.824 4.61162 37.1 5.10762C38.42 5.61562 39.532 6.30362 40.644 7.41362C41.661 8.41341 42.4479 9.62279 42.95 10.9576C43.444 12.2316 43.78 13.6836 43.88 15.8136C43.974 17.9456 44 18.6236 44 24.0576C44 29.4916 43.98 30.1696 43.88 32.3016C43.78 34.4316 43.444 35.8816 42.95 37.1576C42.4494 38.4932 41.6622 39.7029 40.644 40.7016C39.6439 41.7183 38.4346 42.5051 37.1 43.0076C35.826 43.5016 34.374 43.8376 32.244 43.9376C30.112 44.0316 29.434 44.0576 24 44.0576C18.566 44.0576 17.888 44.0376 15.756 43.9376C13.626 43.8376 12.176 43.5016 10.9 43.0076C9.56465 42.5066 8.35505 41.7195 7.356 40.7016C6.33881 39.702 5.55186 38.4926 5.05 37.1576C4.554 35.8836 4.22 34.4316 4.12 32.3016C4.026 30.1696 4 29.4916 4 24.0576C4 18.6236 4.02 17.9456 4.12 15.8136C4.22 13.6816 4.554 12.2336 5.05 10.9576C5.55047 9.62198 6.33761 8.41226 7.356 7.41362C8.35534 6.39608 9.56486 5.60908 10.9 5.10762C12.176 4.61162 13.624 4.27762 15.756 4.17762C17.888 4.08362 18.566 4.05762 24 4.05762ZM24 14.0576C21.3478 14.0576 18.8043 15.1112 16.9289 16.9865C15.0536 18.8619 14 21.4055 14 24.0576C14 26.7098 15.0536 29.2533 16.9289 31.1287C18.8043 33.004 21.3478 34.0576 24 34.0576C26.6522 34.0576 29.1957 33.004 31.0711 31.1287C32.9464 29.2533 34 26.7098 34 24.0576C34 21.4055 32.9464 18.8619 31.0711 16.9865C29.1957 15.1112 26.6522 14.0576 24 14.0576ZM37 13.5576C37 12.8946 36.7366 12.2587 36.2678 11.7899C35.7989 11.321 35.163 11.0576 34.5 11.0576C33.837 11.0576 33.2011 11.321 32.7322 11.7899C32.2634 12.2587 32 12.8946 32 13.5576C32 14.2207 32.2634 14.8565 32.7322 15.3254C33.2011 15.7942 33.837 16.0576 34.5 16.0576C35.163 16.0576 35.7989 15.7942 36.2678 15.3254C36.7366 14.8565 37 14.2207 37 13.5576ZM24 18.0576C25.5913 18.0576 27.1174 18.6898 28.2426 19.815C29.3679 20.9402 30 22.4663 30 24.0576C30 25.6489 29.3679 27.175 28.2426 28.3003C27.1174 29.4255 25.5913 30.0576 24 30.0576C22.4087 30.0576 20.8826 29.4255 19.7574 28.3003C18.6321 27.175 18 25.6489 18 24.0576C18 22.4663 18.6321 20.9402 19.7574 19.815C20.8826 18.6898 22.4087 18.0576 24 18.0576Z" fill="black"/>
</g>
<defs>
<clipPath id="clip0_296_56">
<rect width="48" height="48" fill="white"/>
</clipPath>
</defs>
</svg>
