<svg width="48" height="48" viewBox="0 0 48 48" fill="none" xmlns="http://www.w3.org/2000/svg">
<path d="M44 8.02003C42 9.00003 40.04 9.39803 38 10C35.758 7.47003 32.434 7.33003 29.24 8.52603C26.046 9.72203 23.954 12.646 24 16V18C17.51 18.166 11.73 15.21 8 10C8 10 -0.364 24.866 16 32C12.256 34.494 8.522 36.176 4 36C10.616 39.606 17.826 40.846 24.068 39.034C31.228 36.954 37.112 31.588 39.37 23.55C40.0436 21.1054 40.378 18.5797 40.364 16.044C40.36 15.546 43.384 10.5 44 8.01803V8.02003Z" stroke="black" stroke-width="2" stroke-linecap="round" stroke-linejoin="round"/>
</svg>
