<svg width="49" height="48" viewBox="0 0 49 48" fill="none" xmlns="http://www.w3.org/2000/svg">
<path d="M41.8836 3H6.90916C4.9981 3 3.32837 4.37812 3.32837 6.27094V41.4009C3.32837 43.3041 4.9981 45 6.90916 45H41.8733C43.7947 45 45.2352 43.2928 45.2352 41.4009V6.27094C45.2465 4.37812 43.7947 3 41.8836 3ZM16.3186 38.0091H10.315V19.3013H16.3186V38.0091ZM13.5245 16.4569H13.4814C11.5601 16.4569 10.316 15.0234 10.316 13.2291C10.316 11.4019 11.5928 10.0022 13.5572 10.0022C15.5216 10.0022 16.7236 11.3916 16.7666 13.2291C16.7657 15.0234 15.5216 16.4569 13.5245 16.4569ZM38.2598 38.0091H32.2563V27.78C32.2563 25.3294 31.3826 23.655 29.2105 23.655C27.5511 23.655 26.5689 24.78 26.1321 25.8759C25.9684 26.2697 25.9244 26.8059 25.9244 27.3534V38.0091H19.9209V19.3013H25.9244V21.9047C26.7981 20.6578 28.1629 18.8634 31.3386 18.8634C35.2796 18.8634 38.2607 21.4669 38.2607 27.0797L38.2598 38.0091Z" fill="black"/>
</svg>
